<svg xmlns="http://www.w3.org/2000/svg" viewBox="0 0 106 134" fill="none" role="img" aria-label="Stance"><defs><linearGradient id="L" x1="0" y1="0" x2="0.25" y2="1"><stop offset="0" stop-color="#C8B6FB"></stop><stop offset="1" stop-color="#9D6FF2"></stop></linearGradient><linearGradient id="B" x1="0.1" y1="0" x2="0.45" y2="1"><stop offset="0" stop-color="#9A77F3"></stop><stop offset="1" stop-color="#6D28D9"></stop></linearGradient><linearGradient id="M" x1="0" y1="0" x2="0.3" y2="1"><stop offset="0" stop-color="#B89BF7"></stop><stop offset="1" stop-color="#7C3AED"></stop></linearGradient><clipPath id="cl"><rect x="0" y="0" width="24" height="108" rx="11"></rect></clipPath><clipPath id="cr"><rect x="79" y="39" width="25" height="95" rx="12.5"></rect></clipPath></defs><rect x="0" y="0" width="24" height="108" rx="11" fill="url(#L)"></rect><path d="M40.5 33 a10 10 0 0 1 20 0 V46 a8 8 0 0 1 -8 8 H48.5 a8 8 0 0 1 -8 -8 Z" fill="url(#M)"></path><rect x="40" y="61" width="21" height="65" rx="10.5" fill="url(#B)"></rect><circle cx="90.4" cy="15" r="14.6" fill="url(#M)"></circle><rect x="79" y="39" width="25" height="95" rx="12.5" fill="url(#B)"></rect><g clip-path="url(#cl)" opacity="0.6" style="mix-blend-mode:screen"><path d="M-2 64 L26 50 V112 H-2 Z" fill="#7C3AED"></path></g><g clip-path="url(#cr)" opacity="0.5" style="mix-blend-mode:screen"><path d="M77 92 L106 74 V102 L77 120 Z" fill="#B79CF7"></path></g></svg>